<?xml version="1.0" standalone="no"?>
<!DOCTYPE svg PUBLIC "-//W3C//DTD SVG 20010904//EN"
 "http://www.w3.org/TR/2001/REC-SVG-20010904/DTD/svg10.dtd">
<svg version="1.0" xmlns="http://www.w3.org/2000/svg"
 width="534.000000pt" height="467.000000pt" viewBox="0 0 534.000000 467.000000"
 preserveAspectRatio="xMidYMid meet">

<g transform="translate(0.000000,467.000000) scale(0.100000,-0.100000)"
fill="#291c0e" stroke="none">
<path d="M2793 3540 c-303 -31 -550 -182 -649 -395 -48 -105 -66 -259 -45
-402 6 -40 4 -53 -5 -53 -7 0 -15 4 -18 9 -8 12 -126 56 -201 75 -165 41 -442
45 -618 8 -104 -22 -103 -22 -93 69 14 141 95 222 248 250 127 23 289 -28 398
-128 30 -27 60 -48 67 -46 7 3 35 36 64 74 60 81 60 87 -5 187 -116 178 -253
260 -451 270 -172 8 -326 -43 -436 -145 -118 -109 -179 -291 -179 -534 l0
-126 -92 -54 c-174 -103 -341 -300 -405 -481 -46 -127 -58 -206 -57 -368 1
-127 5 -160 31 -260 34 -128 63 -194 129 -286 125 -177 305 -267 534 -268 246
0 417 97 511 290 50 103 69 191 69 325 0 178 -59 355 -201 599 -112 193 -157
285 -149 300 13 24 148 66 252 80 140 19 349 -6 556 -66 28 -9 52 -19 52 -23
0 -4 -25 -25 -57 -47 -104 -72 -198 -175 -242 -266 -51 -106 -65 -185 -57
-311 25 -364 208 -618 571 -792 185 -89 367 -125 624 -125 413 0 800 94 1195
292 499 250 798 589 800 908 0 92 -15 146 -57 202 -49 65 -106 90 -192 85
-114 -6 -184 -56 -215 -151 -25 -78 2 -198 67 -299 l18 -28 -86 -83 c-111
-109 -163 -130 -294 -123 -72 3 -103 10 -155 34 -189 86 -244 284 -180 643 47
265 25 498 -64 687 -94 197 -272 356 -470 418 -151 48 -359 70 -513 55z
m-1688 -1485 c101 -218 129 -293 146 -389 30 -173 -27 -266 -163 -266 -200 0
-287 306 -181 634 40 125 90 233 103 220 4 -5 47 -94 95 -199z"/>
</g>
</svg>
