<?xml version="1.0" standalone="no"?>
<!DOCTYPE svg PUBLIC "-//W3C//DTD SVG 20010904//EN"
 "http://www.w3.org/TR/2001/REC-SVG-20010904/DTD/svg10.dtd">
<svg version="1.0" xmlns="http://www.w3.org/2000/svg"
 width="534.000000pt" height="467.000000pt" viewBox="0 0 534.000000 467.000000"
 preserveAspectRatio="xMidYMid meet">

<g transform="translate(0.000000,467.000000) scale(0.100000,-0.100000)"
fill="#291c0e" stroke="none">
<path d="M2296 3539 c-99 -10 -227 -38 -305 -68 -176 -66 -341 -223 -427 -404
-89 -189 -111 -422 -64 -687 50 -278 28 -454 -69 -562 -66 -74 -148 -109 -266
-115 -131 -7 -183 14 -294 123 l-86 83 18 28 c65 101 92 221 67 299 -31 95
-101 145 -215 151 -86 5 -143 -20 -192 -85 -42 -56 -57 -110 -57 -202 2 -319
301 -658 800 -908 395 -198 782 -292 1195 -292 257 0 439 36 624 125 363 174
546 428 571 792 8 126 -6 205 -57 311 -44 91 -138 194 -242 266 -32 22 -57 43
-57 47 0 4 24 14 53 23 206 60 415 85 555 66 104 -14 239 -56 252 -80 8 -15
-37 -107 -149 -300 -142 -244 -201 -421 -201 -599 0 -134 19 -222 69 -325 94
-193 265 -290 511 -290 229 1 409 91 534 268 66 92 95 158 129 286 26 100 30
133 31 260 1 162 -11 241 -57 368 -64 181 -231 378 -405 481 l-92 54 0 126 c0
243 -61 425 -179 534 -110 102 -264 153 -436 145 -198 -10 -335 -92 -451 -270
-65 -100 -65 -106 -5 -187 29 -38 57 -71 64 -74 7 -2 37 19 67 46 109 100 271
151 398 128 153 -28 234 -109 248 -250 10 -91 11 -91 -93 -69 -176 37 -453 33
-618 -8 -75 -19 -193 -63 -201 -75 -3 -5 -11 -9 -18 -9 -9 0 -11 13 -5 53 21
143 3 297 -45 402 -101 218 -345 364 -662 395 -111 11 -114 11 -238 -1z m2073
-1336 c50 -100 99 -271 107 -369 19 -259 -71 -434 -224 -434 -135 0 -193 93
-163 265 16 93 42 165 119 330 35 77 77 168 93 203 15 34 31 62 33 62 3 0 19
-26 35 -57z"/>
</g>
</svg>
